<svg width="20" height="20" viewBox="0 0 20 20" fill="none" xmlns="http://www.w3.org/2000/svg">
<path fill-rule="evenodd" clip-rule="evenodd" d="M13 2.5C13 2.08579 13.3358 1.75 13.75 1.75H17.5C17.9142 1.75 18.25 2.08579 18.25 2.5V6.25C18.25 6.66421 17.9142 7 17.5 7C17.0858 7 16.75 6.66421 16.75 6.25V3.25H13.75C13.3358 3.25 13 2.91421 13 2.5Z" fill="#333333"/>
<path fill-rule="evenodd" clip-rule="evenodd" d="M17.5 13C17.9142 13 18.25 13.3358 18.25 13.75V17.5C18.25 17.9142 17.9142 18.25 17.5 18.25H13.75C13.3358 18.25 13 17.9142 13 17.5C13 17.0858 13.3358 16.75 13.75 16.75H16.75V13.75C16.75 13.3358 17.0858 13 17.5 13Z" fill="#333333"/>
<path fill-rule="evenodd" clip-rule="evenodd" d="M2.5 13C2.91421 13 3.25 13.3358 3.25 13.75V16.75H6.25C6.66421 16.75 7 17.0858 7 17.5C7 17.9142 6.66421 18.25 6.25 18.25H2.5C2.08579 18.25 1.75 17.9142 1.75 17.5V13.75C1.75 13.3358 2.08579 13 2.5 13Z" fill="#333333"/>
<path fill-rule="evenodd" clip-rule="evenodd" d="M1.75 2.5C1.75 2.08579 2.08579 1.75 2.5 1.75H6.25C6.66421 1.75 7 2.08579 7 2.5C7 2.91421 6.66421 3.25 6.25 3.25H3.25V6.25C3.25 6.66421 2.91421 7 2.5 7C2.08579 7 1.75 6.66421 1.75 6.25V2.5Z" fill="#333333"/>
</svg>
